<svg width="24" height="24" viewBox="0 0 24 24" fill="none" xmlns="http://www.w3.org/2000/svg">
<path d="M11.5 4C11.5 4.27614 11.7239 4.5 12 4.5C12.2761 4.5 12.5 4.27614 12.5 4H11.5ZM10 0.5C9.72386 0.5 9.5 0.723858 9.5 1C9.5 1.27614 9.72386 1.5 10 1.5V0.5ZM14 1.5C14.2761 1.5 14.5 1.27614 14.5 1C14.5 0.723858 14.2761 0.5 14 0.5V1.5ZM20 11.5C19.7239 11.5 19.5 11.7239 19.5 12C19.5 12.2761 19.7239 12.5 20 12.5V11.5ZM23.5 10C23.5 9.72386 23.2761 9.5 23 9.5C22.7239 9.5 22.5 9.72386 22.5 10H23.5ZM22.5 14C22.5 14.2761 22.7239 14.5 23 14.5C23.2761 14.5 23.5 14.2761 23.5 14H22.5ZM18.0104 17.3036C17.8151 17.1083 17.4986 17.1083 17.3033 17.3036C17.108 17.4989 17.108 17.8154 17.3033 18.0107L18.0104 17.3036ZM21.5459 18.7178C21.7412 18.5225 21.7412 18.206 21.5459 18.0107C21.3507 17.8154 21.0341 17.8154 20.8388 18.0107L21.5459 18.7178ZM18.0104 20.8391C17.8151 21.0344 17.8151 21.351 18.0104 21.5462C18.2057 21.7415 18.5222 21.7415 18.7175 21.5462L18.0104 20.8391ZM4.22153 19.7782L3.86798 20.1317H3.86798L4.22153 19.7782ZM6.6964 18.0104C6.89167 17.8151 6.89167 17.4986 6.6964 17.3033C6.50114 17.108 6.18456 17.108 5.9893 17.3033L6.6964 18.0104ZM5.28219 21.5459C5.47745 21.7412 5.79403 21.7412 5.9893 21.5459C6.18456 21.3507 6.18456 21.0341 5.9893 20.8388L5.28219 21.5459ZM3.16087 18.0104C2.96561 17.8151 2.64902 17.8151 2.45376 18.0104C2.2585 18.2057 2.2585 18.5222 2.45376 18.7175L3.16087 18.0104ZM12.5 20C12.5 19.7239 12.2761 19.5 12 19.5C11.7239 19.5 11.5 19.7239 11.5 20H12.5ZM14 23.5C14.2761 23.5 14.5 23.2761 14.5 23C14.5 22.7239 14.2761 22.5 14 22.5V23.5ZM10 22.5C9.72386 22.5 9.5 22.7239 9.5 23C9.5 23.2761 9.72386 23.5 10 23.5V22.5ZM4 12.5C4.27614 12.5 4.5 12.2761 4.5 12C4.5 11.7239 4.27614 11.5 4 11.5V12.5ZM0.5 14C0.5 14.2761 0.723858 14.5 1 14.5C1.27614 14.5 1.5 14.2761 1.5 14H0.5ZM1.5 10C1.5 9.72386 1.27614 9.5 1 9.5C0.723858 9.5 0.500001 9.72386 0.500001 10H1.5ZM5.9896 6.6964C6.18486 6.89167 6.50144 6.89167 6.6967 6.6964C6.89197 6.50114 6.89197 6.18456 6.6967 5.9893L5.9896 6.6964ZM2.45406 5.28219C2.2588 5.47745 2.2588 5.79403 2.45406 5.9893C2.64933 6.18456 2.96591 6.18456 3.16117 5.9893L2.45406 5.28219ZM5.9896 3.16087C6.18486 2.96561 6.18486 2.64902 5.9896 2.45376C5.79434 2.2585 5.47775 2.2585 5.28249 2.45376L5.9896 3.16087ZM17.3036 5.9896C17.1083 6.18486 17.1083 6.50144 17.3036 6.6967C17.4989 6.89197 17.8154 6.89197 18.0107 6.6967L17.3036 5.9896ZM18.7178 2.45406C18.5225 2.2588 18.206 2.2588 18.0107 2.45406C17.8154 2.64933 17.8154 2.96591 18.0107 3.16117L18.7178 2.45406ZM20.8391 5.9896C21.0344 6.18486 21.351 6.18486 21.5462 5.9896C21.7415 5.79434 21.7415 5.47775 21.5462 5.28249L20.8391 5.9896ZM12.7381 10.4364C12.7381 11.6067 11.7894 12.5555 10.619 12.5555V13.5555C12.3417 13.5555 13.7381 12.159 13.7381 10.4364H12.7381ZM10.619 12.5555C9.44873 12.5555 8.5 11.6067 8.5 10.4364H7.5C7.5 12.159 8.89645 13.5555 10.619 13.5555V12.5555ZM8.5 10.4364C8.5 9.26611 9.44873 8.31738 10.619 8.31738V7.31738C8.89645 7.31738 7.5 8.71383 7.5 10.4364H8.5ZM10.619 8.31738C11.7894 8.31738 12.7381 9.26611 12.7381 10.4364H13.7381C13.7381 8.71383 12.3417 7.31738 10.619 7.31738V8.31738ZM15.2249 14.9867C15.2249 15.368 14.9157 15.6772 14.5344 15.6772V16.6772C15.468 16.6772 16.2249 15.9203 16.2249 14.9867H15.2249ZM14.5344 15.6772C14.1531 15.6772 13.8439 15.368 13.8439 14.9867H12.8439C12.8439 15.9203 13.6008 16.6772 14.5344 16.6772V15.6772ZM13.8439 14.9867C13.8439 14.6054 14.1531 14.2962 14.5344 14.2962V13.2962C13.6008 13.2962 12.8439 14.0531 12.8439 14.9867H13.8439ZM14.5344 14.2962C14.9157 14.2962 15.2249 14.6054 15.2249 14.9867H16.2249C16.2249 14.0531 15.468 13.2962 14.5344 13.2962V14.2962ZM16.1243 10.6481C16.1243 10.8541 15.9573 11.0211 15.7513 11.0211V12.0211C16.5096 12.0211 17.1243 11.4064 17.1243 10.6481H16.1243ZM15.7513 11.0211C15.5453 11.0211 15.3783 10.8541 15.3783 10.6481H14.3783C14.3783 11.4064 14.993 12.0211 15.7513 12.0211V11.0211ZM15.3783 10.6481C15.3783 10.4421 15.5453 10.2751 15.7513 10.2751V9.27505C14.993 9.27505 14.3783 9.88978 14.3783 10.6481H15.3783ZM15.7513 10.2751C15.9573 10.2751 16.1243 10.4421 16.1243 10.6481H17.1243C17.1243 9.88978 16.5096 9.27505 15.7513 9.27505V10.2751ZM18.5 12C18.5 15.5899 15.5899 18.5 12 18.5V19.5C16.1421 19.5 19.5 16.1421 19.5 12H18.5ZM12 18.5C8.41015 18.5 5.5 15.5899 5.5 12H4.5C4.5 16.1421 7.85787 19.5 12 19.5V18.5ZM5.5 12C5.5 8.41015 8.41015 5.5 12 5.5V4.5C7.85787 4.5 4.5 7.85787 4.5 12H5.5ZM12 5.5C15.5899 5.5 18.5 8.41015 18.5 12H19.5C19.5 7.85787 16.1421 4.5 12 4.5V5.5ZM11.5 1V4H12.5V1H11.5ZM10 1.5H12V0.5H10V1.5ZM12 1.5H14V0.5H12V1.5ZM23 11.5H20V12.5H23V11.5ZM22.5 10V12H23.5V10H22.5ZM22.5 12V14H23.5V12H22.5ZM20.1317 19.4249L18.0104 17.3036L17.3033 18.0107L19.4246 20.132L20.1317 19.4249ZM20.8388 18.0107L19.4246 19.4249L20.1317 20.132L21.5459 18.7178L20.8388 18.0107ZM19.4246 19.4249L18.0104 20.8391L18.7175 21.5462L20.1317 20.132L19.4246 19.4249ZM4.57508 20.1317L6.6964 18.0104L5.9893 17.3033L3.86798 19.4246L4.57508 20.1317ZM5.9893 20.8388L4.57508 19.4246L3.86798 20.1317L5.28219 21.5459L5.9893 20.8388ZM4.57508 19.4246L3.16087 18.0104L2.45376 18.7175L3.86798 20.1317L4.57508 19.4246ZM12.5 23V20H11.5V23H12.5ZM14 22.5H12V23.5H14V22.5ZM12 22.5H10V23.5H12V22.5ZM1 12.5H4V11.5H1V12.5ZM1.5 14L1.5 12H0.5L0.5 14H1.5ZM1.5 12L1.5 10H0.500001L0.5 12H1.5ZM3.86828 4.57508L5.9896 6.6964L6.6967 5.9893L4.57538 3.86798L3.86828 4.57508ZM3.16117 5.9893L4.57538 4.57508L3.86828 3.86798L2.45406 5.28219L3.16117 5.9893ZM4.57538 4.57508L5.9896 3.16087L5.28249 2.45376L3.86828 3.86798L4.57538 4.57508ZM19.4249 3.86828L17.3036 5.9896L18.0107 6.6967L20.132 4.57538L19.4249 3.86828ZM18.0107 3.16117L19.4249 4.57538L20.132 3.86828L18.7178 2.45406L18.0107 3.16117ZM19.4249 4.57538L20.8391 5.9896L21.5462 5.28249L20.132 3.86828L19.4249 4.57538Z" fill="black"/>
</svg>
