<svg width="16" height="16" viewBox="0 0 16 16" fill="none" xmlns="http://www.w3.org/2000/svg">
<path fill-rule="evenodd" clip-rule="evenodd" d="M2.6326 1C2.00853 1 1.5022 1.55445 1.5022 2.23698V2.96501C1.5022 3.47059 1.68072 3.95679 2.00007 4.32249L5.49879 8.32891C5.49927 8.32946 5.50016 8.32939 5.50055 8.32875V8.32875C5.50093 8.32813 5.5018 8.32805 5.50229 8.32859C6.1773 9.07337 6.55707 10.0798 6.55707 11.1292V14.6851C6.55707 14.9228 6.78792 15.0744 6.97953 14.9624L8.97254 13.7928C9.27342 13.6158 9.46118 13.2721 9.46118 12.8988V11.12C9.46118 10.076 9.83593 9.07323 10.5054 8.33003L14.0051 4.32249C14.3237 3.95679 14.5022 3.47059 14.5022 2.96501V2.23698C14.5022 1.55445 13.9966 1 13.3726 1H2.6326Z" stroke="#FD5B1F" stroke-width="1.5" stroke-linecap="round" stroke-linejoin="round"/>
</svg>
