<svg width="24" height="24" viewBox="0 0 24 24" fill="none" xmlns="http://www.w3.org/2000/svg">
<path d="M1 12.0664H4.66667M19.3333 12.0664H23M12 4.73307V1.06641M12 23.0664V19.3997M20.8 12.0664C20.8 16.9265 16.8601 20.8664 12 20.8664C7.13989 20.8664 3.2 16.9265 3.2 12.0664C3.2 7.2063 7.13989 3.26641 12 3.26641C16.8601 3.26641 20.8 7.2063 20.8 12.0664ZM15.6667 12.0664C15.6667 14.0915 14.025 15.7331 12 15.7331C9.97496 15.7331 8.33333 14.0915 8.33333 12.0664C8.33333 10.0414 9.97496 8.39974 12 8.39974C14.025 8.39974 15.6667 10.0414 15.6667 12.0664Z" stroke="black" stroke-linecap="round" stroke-linejoin="round"/>
</svg>
