<svg width="14" height="18" viewBox="0 0 14 18" fill="none" xmlns="http://www.w3.org/2000/svg">
<path d="M13.0022 7.63636C13.0022 12.4091 7.0022 16.5 7.0022 16.5C7.0022 16.5 1.0022 12.4091 1.0022 7.63636C1.0022 6.0089 1.63434 4.44809 2.75956 3.2973C3.88477 2.14651 5.4109 1.5 7.0022 1.5C8.5935 1.5 10.1196 2.14651 11.2448 3.2973C12.3701 4.44809 13.0022 6.0089 13.0022 7.63636Z" stroke="#FD5B1F" stroke-width="1.5" stroke-linecap="round" stroke-linejoin="round"/>
<path d="M7.0022 9.68182C8.10677 9.68182 9.0022 8.76604 9.0022 7.63636C9.0022 6.50669 8.10677 5.59091 7.0022 5.59091C5.89763 5.59091 5.0022 6.50669 5.0022 7.63636C5.0022 8.76604 5.89763 9.68182 7.0022 9.68182Z" stroke="#FD5B1F" stroke-width="1.5" stroke-linecap="round" stroke-linejoin="round"/>
</svg>
