<svg width="24" height="21" viewBox="0 0 24 21" fill="none" xmlns="http://www.w3.org/2000/svg">
<path d="M2.43123 10.5822V10.0822H1.93123V10.5822H2.43123ZM21.5688 10.5822H22.0688V10.0822H21.5688V10.5822ZM2.43123 12.6441H1.93123H2.43123ZM8.3197 18.8296V18.3296C8.14321 18.3296 7.97978 18.4226 7.88971 18.5744C7.79964 18.7262 7.79627 18.9142 7.88083 19.0691L8.3197 18.8296ZM15.6803 18.8296L16.1192 19.0691C16.2037 18.9142 16.2004 18.7262 16.1103 18.5744C16.0202 18.4226 15.8568 18.3296 15.6803 18.3296V18.8296ZM8.64534 19.4261L9.08422 19.1866L8.64534 19.4261ZM15.3547 19.4261L15.7935 19.6657L15.3547 19.4261ZM13.1412 5.26596L13.6244 5.13756L13.1412 5.26596ZM6.97936 6.93093L7.46259 6.80253L6.97936 6.93093ZM8.70555 1L8.88855 0.53469L8.54419 0.399262L8.31403 0.689013L8.70555 1ZM12.7156 8.8709V9.3709H13.0454L13.1752 9.06774L12.7156 8.8709ZM8.06187 8.8709L7.68631 9.20098L7.83565 9.3709H8.06187V8.8709ZM17.8891 4.07599L18.3834 4.00102L18.3267 3.62668L17.951 3.57983L17.8891 4.07599ZM10.2761 8.73126C10.347 8.99814 10.6209 9.15701 10.8877 9.08609C11.1546 9.01518 11.3135 8.74134 11.2426 8.47446L10.2761 8.73126ZM10.0051 3.81744C9.93423 3.55056 9.6604 3.3917 9.39351 3.46261C9.12663 3.53352 8.96777 3.80736 9.03868 4.07424L10.0051 3.81744ZM13.028 8.24455C12.8335 8.44063 12.8348 8.75721 13.0309 8.95165C13.227 9.14609 13.5436 9.14476 13.738 8.94868L13.028 8.24455ZM16.3959 6.26846C16.5903 6.07238 16.589 5.7558 16.3929 5.56136C16.1968 5.36691 15.8802 5.36824 15.6858 5.56432L16.3959 6.26846ZM2.43123 11.0822H21.5688V10.0822H2.43123V11.0822ZM21.0688 10.5822V12.6441H22.0688V10.5822H21.0688ZM15.4349 18.3296H8.56506V19.3296H15.4349V18.3296ZM2.93123 12.6441V10.5822H1.93123V12.6441H2.93123ZM8.56506 18.3296C5.45752 18.3296 2.93123 15.788 2.93123 12.6441H1.93123C1.93123 16.3324 4.89735 19.3296 8.56506 19.3296V18.3296ZM21.0688 12.6441C21.0688 15.788 18.5425 18.3296 15.4349 18.3296V19.3296C19.1027 19.3296 22.0688 16.3324 22.0688 12.6441H21.0688ZM8.3197 19.3296H15.6803V18.3296H8.3197V19.3296ZM15.2414 18.59L14.9158 19.1866L15.7935 19.6657L16.1192 19.0691L15.2414 18.59ZM14.28 19.5667H9.72005V20.5667H14.28V19.5667ZM9.08422 19.1866L8.75858 18.59L7.88083 19.0691L8.20647 19.6657L9.08422 19.1866ZM9.72005 19.5667C9.45721 19.5667 9.21296 19.4224 9.08422 19.1866L8.20647 19.6657C8.50907 20.22 9.08841 20.5667 9.72005 20.5667V19.5667ZM14.9158 19.1866C14.787 19.4224 14.5428 19.5667 14.28 19.5667V20.5667C14.9116 20.5667 15.4909 20.22 15.7935 19.6657L14.9158 19.1866ZM1.83829 9.39152H22.1617V8.39152H1.83829V9.39152ZM22.1617 10.0822H1.83829V11.0822H22.1617V10.0822ZM1.83829 10.0822C1.6554 10.0822 1.5 9.93157 1.5 9.73687H0.5C0.5 10.4759 1.09523 11.0822 1.83829 11.0822V10.0822ZM22.5 9.73687C22.5 9.93157 22.3446 10.0822 22.1617 10.0822V11.0822C22.9048 11.0822 23.5 10.4759 23.5 9.73687H22.5ZM22.1617 9.39152C22.3446 9.39152 22.5 9.54217 22.5 9.73687H23.5C23.5 8.99781 22.9048 8.39152 22.1617 8.39152V9.39152ZM1.83829 8.39152C1.09523 8.39152 0.5 8.99781 0.5 9.73687H1.5C1.5 9.54217 1.6554 9.39152 1.83829 9.39152V8.39152ZM7.46259 6.80253C7.13348 5.56393 7.50762 4.2136 8.01538 3.12012C8.26527 2.58198 8.53822 2.12607 8.74878 1.80485C8.85383 1.64461 8.94272 1.51884 9.00453 1.43416C9.03542 1.39185 9.0595 1.35987 9.07539 1.33905C9.08334 1.32864 9.08923 1.32102 9.09291 1.31631C9.09474 1.31396 9.09602 1.31233 9.09672 1.31143C9.09707 1.31099 9.09728 1.31073 9.09734 1.31065C9.09737 1.31061 9.09736 1.31062 9.09732 1.31068C9.09729 1.31071 9.09723 1.31078 9.09722 1.3108C9.09715 1.31089 9.09707 1.31099 8.70555 1C8.31403 0.689013 8.31393 0.689137 8.31383 0.689273C8.31378 0.689335 8.31366 0.689483 8.31356 0.689606C8.31337 0.689852 8.31314 0.690145 8.31287 0.690486C8.31233 0.691169 8.31164 0.692042 8.3108 0.693104C8.30913 0.695228 8.30687 0.698108 8.30405 0.701732C8.2984 0.70898 8.29049 0.719203 8.2805 0.732298C8.26051 0.758483 8.23216 0.796178 8.19685 0.844542C8.12627 0.941223 8.0277 1.08082 7.91246 1.25662C7.68246 1.60748 7.38358 2.10634 7.10839 2.69896C6.56601 3.867 6.07705 5.48213 6.49612 7.05933L7.46259 6.80253ZM8.70555 1C8.52256 1.46531 8.52244 1.46526 8.52233 1.46522C8.52231 1.46521 8.52222 1.46518 8.52219 1.46516C8.52212 1.46514 8.52211 1.46513 8.52215 1.46515C8.52223 1.46518 8.52254 1.4653 8.52306 1.46551C8.5241 1.46592 8.52601 1.46669 8.52875 1.4678C8.53425 1.47002 8.54311 1.47363 8.55513 1.47864C8.57918 1.48864 8.61585 1.50418 8.66354 1.52523C8.75898 1.56736 8.89822 1.63141 9.06854 1.71717C9.40997 1.88908 9.87212 2.14613 10.355 2.48596C11.3362 3.17639 12.329 4.15632 12.6579 5.39436L13.6244 5.13756C13.2052 3.55981 11.9802 2.40676 10.9305 1.66815C10.3981 1.29347 9.89162 1.01199 9.51827 0.824002C9.3312 0.729811 9.17652 0.658572 9.06737 0.610394C9.01277 0.586293 8.96949 0.567927 8.93916 0.555312C8.92399 0.549003 8.91205 0.54413 8.90355 0.540693C8.8993 0.538974 8.89591 0.537615 8.8934 0.536614C8.89214 0.536114 8.89111 0.535704 8.8903 0.535383C8.8899 0.535223 8.88955 0.535085 8.88925 0.534969C8.88911 0.534912 8.88893 0.534842 8.88886 0.534813C8.8887 0.534749 8.88855 0.53469 8.70555 1ZM12.6579 5.39436C12.962 6.53884 12.7034 7.62947 12.256 8.67405L13.1752 9.06774C13.6627 7.92962 14.0108 6.5919 13.6244 5.13756L12.6579 5.39436ZM8.43743 8.54081C7.98971 8.03141 7.63492 7.45111 7.46259 6.80253L6.49612 7.05933C6.7181 7.89475 7.16583 8.60879 7.68631 9.20098L8.43743 8.54081ZM12.7156 8.3709C10.8755 8.3709 10.0372 8.3709 8.06187 8.3709V9.3709C10.0372 9.3709 10.8755 9.3709 12.7156 9.3709V8.3709ZM13.3724 5.68285C14.0715 4.97784 15.1471 4.6817 16.1219 4.57913C16.5992 4.52891 17.0298 4.52743 17.341 4.53866C17.4962 4.54426 17.6205 4.55297 17.7049 4.56013C17.747 4.56371 17.779 4.5669 17.7998 4.5691C17.8102 4.5702 17.8178 4.57105 17.8224 4.57158C17.8247 4.57185 17.8263 4.57204 17.8271 4.57213C17.8275 4.57218 17.8277 4.57221 17.8277 4.57221C17.8278 4.57221 17.8277 4.57221 17.8276 4.5722C17.8276 4.57219 17.8275 4.57218 17.8275 4.57218C17.8274 4.57216 17.8272 4.57215 17.8891 4.07599C17.951 3.57983 17.9508 3.57981 17.9507 3.57979C17.9506 3.57978 17.9504 3.57976 17.9503 3.57975C17.95 3.57971 17.9497 3.57967 17.9493 3.57962C17.9485 3.57953 17.9475 3.57941 17.9464 3.57927C17.9441 3.579 17.941 3.57863 17.9371 3.57819C17.9294 3.5773 17.9187 3.57609 17.905 3.57465C17.8778 3.57176 17.8388 3.56791 17.7895 3.56372C17.6908 3.55534 17.5502 3.54556 17.377 3.53931C17.0316 3.52685 16.5524 3.52831 16.0172 3.58462C14.967 3.69512 13.6067 4.02637 12.6623 4.97872L13.3724 5.68285ZM17.8891 4.07599C17.3948 4.15096 17.3947 4.15084 17.3947 4.15072C17.3947 4.1507 17.3947 4.1506 17.3947 4.15055C17.3947 4.15046 17.3947 4.15041 17.3947 4.1504C17.3947 4.15039 17.3947 4.15054 17.3947 4.15086C17.3948 4.15151 17.395 4.15282 17.3953 4.1548C17.3959 4.15874 17.3968 4.1653 17.398 4.17435C17.4004 4.19247 17.404 4.22056 17.4082 4.25766C17.4165 4.3319 17.4274 4.44192 17.4365 4.58008C17.4548 4.85709 17.4658 5.2435 17.4371 5.67911C17.3787 6.56627 17.1601 7.58313 16.5783 8.31987L17.363 8.93967C18.131 7.96728 18.3716 6.70725 18.435 5.7448C18.4672 5.2556 18.4548 4.82403 18.4343 4.51426C18.4241 4.35903 18.4118 4.23346 18.4018 4.14546C18.3969 4.10143 18.3925 4.06674 18.3892 4.04235C18.3876 4.03016 18.3863 4.02054 18.3853 4.01361C18.3848 4.01014 18.3844 4.00735 18.3841 4.00525C18.3839 4.0042 18.3838 4.00332 18.3837 4.00261C18.3836 4.00226 18.3836 4.00195 18.3835 4.00169C18.3835 4.00155 18.3835 4.00139 18.3835 4.00132C18.3835 4.00117 18.3834 4.00102 17.8891 4.07599ZM11.2426 8.47446L10.0051 3.81744L9.03868 4.07424L10.2761 8.73126L11.2426 8.47446ZM13.738 8.94868L16.3959 6.26846L15.6858 5.56432L13.028 8.24455L13.738 8.94868Z" fill="black"/>
</svg>
